<mxfile host="app.diagrams.net" modified="2021-08-03T04:09:40.642Z" agent="5.0 (Windows NT 10.0; Win64; x64) AppleWebKit/537.36 (KHTML, like Gecko) Chrome/92.0.4515.107 Safari/537.36" etag="maOXYHS0c-gYVTArtX9-" version="14.9.3" type="github">
  <diagram id="M12qITSkw9JV9opQ0eIB" name="Page-1">
    <mxGraphModel dx="868" dy="482" grid="1" gridSize="10" guides="1" tooltips="1" connect="1" arrows="1" fold="1" page="1" pageScale="1" pageWidth="827" pageHeight="1169" math="0" shadow="0">
      <root>
        <mxCell id="0" />
        <mxCell id="1" parent="0" />
        <mxCell id="YFrUsNVZUO-yMZGz8kpX-1" value="stm iLunch_Estados_Pedido" style="shape=umlFrame;whiteSpace=wrap;html=1;width=160;height=30;" vertex="1" parent="1">
          <mxGeometry x="40" y="20" width="440" height="600" as="geometry" />
        </mxCell>
        <mxCell id="YFrUsNVZUO-yMZGz8kpX-7" value="Disponible" style="rounded=1;whiteSpace=wrap;html=1;strokeColor=#000000;" vertex="1" parent="1">
          <mxGeometry x="150" y="140" width="120" height="20" as="geometry" />
        </mxCell>
        <mxCell id="YFrUsNVZUO-yMZGz8kpX-9" value="" style="html=1;verticalAlign=bottom;startArrow=circle;startFill=1;endArrow=open;startSize=6;endSize=8;strokeColor=#000000;entryX=0.5;entryY=0;entryDx=0;entryDy=0;" edge="1" parent="1" target="YFrUsNVZUO-yMZGz8kpX-7">
          <mxGeometry width="80" relative="1" as="geometry">
            <mxPoint x="210" y="100" as="sourcePoint" />
            <mxPoint x="230" y="150" as="targetPoint" />
          </mxGeometry>
        </mxCell>
        <mxCell id="YFrUsNVZUO-yMZGz8kpX-11" value="" style="endArrow=classic;html=1;strokeColor=#000000;exitX=0.5;exitY=1;exitDx=0;exitDy=0;" edge="1" parent="1" source="YFrUsNVZUO-yMZGz8kpX-17" target="YFrUsNVZUO-yMZGz8kpX-13">
          <mxGeometry relative="1" as="geometry">
            <mxPoint x="370" y="180" as="sourcePoint" />
            <mxPoint x="610" y="220" as="targetPoint" />
            <Array as="points" />
          </mxGeometry>
        </mxCell>
        <mxCell id="YFrUsNVZUO-yMZGz8kpX-12" value="When(Cliente selecciona tipo de pedido)" style="edgeLabel;resizable=0;html=1;align=center;verticalAlign=middle;" connectable="0" vertex="1" parent="YFrUsNVZUO-yMZGz8kpX-11">
          <mxGeometry relative="1" as="geometry" />
        </mxCell>
        <mxCell id="YFrUsNVZUO-yMZGz8kpX-13" value="Seleccionado" style="rounded=1;whiteSpace=wrap;html=1;strokeColor=#000000;" vertex="1" parent="1">
          <mxGeometry x="241.33" y="399.93" width="120" height="60" as="geometry" />
        </mxCell>
        <mxCell id="YFrUsNVZUO-yMZGz8kpX-14" value="" style="endArrow=classic;html=1;strokeColor=#000000;exitX=0.5;exitY=1;exitDx=0;exitDy=0;" edge="1" parent="1" source="YFrUsNVZUO-yMZGz8kpX-13" target="YFrUsNVZUO-yMZGz8kpX-16">
          <mxGeometry relative="1" as="geometry">
            <mxPoint x="361.33" y="269.93" as="sourcePoint" />
            <mxPoint x="461.33" y="269.93" as="targetPoint" />
          </mxGeometry>
        </mxCell>
        <mxCell id="YFrUsNVZUO-yMZGz8kpX-15" value="When(Ciente seleccciona forma de pago)" style="edgeLabel;resizable=0;html=1;align=center;verticalAlign=middle;" connectable="0" vertex="1" parent="YFrUsNVZUO-yMZGz8kpX-14">
          <mxGeometry relative="1" as="geometry" />
        </mxCell>
        <mxCell id="YFrUsNVZUO-yMZGz8kpX-16" value="Reservado" style="rounded=1;whiteSpace=wrap;html=1;strokeColor=#000000;" vertex="1" parent="1">
          <mxGeometry x="241.33" y="519.9300000000001" width="120" height="60" as="geometry" />
        </mxCell>
        <mxCell id="YFrUsNVZUO-yMZGz8kpX-17" value="" style="rounded=1;whiteSpace=wrap;html=1;strokeColor=#000000;" vertex="1" parent="1">
          <mxGeometry x="210" y="200" width="120" height="60" as="geometry" />
        </mxCell>
        <mxCell id="YFrUsNVZUO-yMZGz8kpX-18" value="" style="endArrow=classic;html=1;strokeColor=#000000;exitX=0.5;exitY=1;exitDx=0;exitDy=0;entryX=0.2;entryY=-0.017;entryDx=0;entryDy=0;entryPerimeter=0;" edge="1" parent="1" source="YFrUsNVZUO-yMZGz8kpX-7" target="YFrUsNVZUO-yMZGz8kpX-17">
          <mxGeometry relative="1" as="geometry">
            <mxPoint x="370" y="280" as="sourcePoint" />
            <mxPoint x="470" y="280" as="targetPoint" />
          </mxGeometry>
        </mxCell>
        <mxCell id="YFrUsNVZUO-yMZGz8kpX-19" value="Label" style="edgeLabel;resizable=0;html=1;align=center;verticalAlign=middle;" connectable="0" vertex="1" parent="YFrUsNVZUO-yMZGz8kpX-18">
          <mxGeometry relative="1" as="geometry" />
        </mxCell>
      </root>
    </mxGraphModel>
  </diagram>
</mxfile>
